<svg width="400" height="300" viewBox="0 0 400 300" xmlns="http://www.w3.org/2000/svg">
  <defs>
    <linearGradient id="bg" x1="0%" y1="0%" x2="100%" y2="100%">
      <stop offset="0%" style="stop-color:#ff6b35;stop-opacity:1" />
      <stop offset="100%" style="stop-color:#f7931e;stop-opacity:1" />
    </linearGradient>
  </defs>
  <rect width="400" height="300" fill="url(#bg)"/>
  <text x="200" y="40" font-family="Arial, sans-serif" font-size="24" fill="white" text-anchor="middle" font-weight="bold">OLX</text>
  <rect x="50" y="60" width="140" height="100" rx="8" fill="white" opacity="0.9"/>
  <rect x="210" y="60" width="140" height="100" rx="8" fill="white" opacity="0.9"/>
  <text x="120" y="85" font-family="Arial, sans-serif" font-size="14" fill="#333" text-anchor="middle">Product A</text>
  <text x="120" y="105" font-family="Arial, sans-serif" font-size="12" fill="#666" text-anchor="middle">$299</text>
  <rect x="70" y="115" width="100" height="30" rx="4" fill="#ff6b35" opacity="0.8"/>
  <text x="120" y="135" font-family="Arial, sans-serif" font-size="12" fill="white" text-anchor="middle">Buy Now</text>
  <text x="280" y="85" font-family="Arial, sans-serif" font-size="14" fill="#333" text-anchor="middle">Product B</text>
  <text x="280" y="105" font-family="Arial, sans-serif" font-size="12" fill="#666" text-anchor="middle">$199</text>
  <rect x="230" y="115" width="100" height="30" rx="4" fill="#ff6b35" opacity="0.8"/>
  <text x="280" y="135" font-family="Arial, sans-serif" font-size="12" fill="white" text-anchor="middle">Buy Now</text>
  <rect x="50" y="180" width="300" height="60" rx="8" fill="white" opacity="0.1"/>
  <text x="200" y="205" font-family="Arial, sans-serif" font-size="16" fill="white" text-anchor="middle">OLX Clone</text>
  <text x="200" y="225" font-family="Arial, sans-serif" font-size="12" fill="white" text-anchor="middle" opacity="0.8">Buy & Sell Platform</text>
  <circle cx="80" cy="195" r="4" fill="white" opacity="0.6"/>
  <circle cx="200" cy="195" r="4" fill="white" opacity="0.6"/>
  <circle cx="320" cy="195" r="4" fill="white" opacity="0.6"/>
</svg>
