<svg width="400" height="300" viewBox="0 0 400 300" xmlns="http://www.w3.org/2000/svg">
  <defs>
    <linearGradient id="bg" x1="0%" y1="0%" x2="100%" y2="100%">
      <stop offset="0%" style="stop-color:#4caf50;stop-opacity:1" />
      <stop offset="100%" style="stop-color:#388e3c;stop-opacity:1" />
    </linearGradient>
  </defs>
  <rect width="400" height="300" fill="url(#bg)"/>
  <rect x="50" y="40" width="300" height="180" rx="8" fill="white" opacity="0.95"/>
  <text x="200" y="65" font-family="Arial, sans-serif" font-size="18" fill="#333" text-anchor="middle" font-weight="bold">My Tasks</text>
  <g transform="translate(70, 85)">
    <rect x="0" y="0" width="15" height="15" rx="2" fill="#4caf50"/>
    <path d="M3 7.5 L6 10.5 L12 4.5" stroke="white" stroke-width="2" fill="none"/>
    <text x="25" y="12" font-family="Arial, sans-serif" font-size="14" fill="#333">Complete project documentation</text>
  </g>
  <g transform="translate(70, 110)">
    <rect x="0" y="0" width="15" height="15" rx="2" fill="white" stroke="#ddd" stroke-width="2"/>
    <text x="25" y="12" font-family="Arial, sans-serif" font-size="14" fill="#333">Review pull requests</text>
  </g>
  <g transform="translate(70, 135)">
    <rect x="0" y="0" width="15" height="15" rx="2" fill="white" stroke="#ddd" stroke-width="2"/>
    <text x="25" y="12" font-family="Arial, sans-serif" font-size="14" fill="#333">Update dependencies</text>
  </g>
  <g transform="translate(70, 160)">
    <rect x="0" y="0" width="15" height="15" rx="2" fill="#4caf50"/>
    <path d="M3 7.5 L6 10.5 L12 4.5" stroke="white" stroke-width="2" fill="none"/>
    <text x="25" y="12" font-family="Arial, sans-serif" font-size="14" fill="#333">Deploy to production</text>
  </g>
  <rect x="250" y="85" width="80" height="30" rx="15" fill="#4caf50" opacity="0.8"/>
  <text x="290" y="105" font-family="Arial, sans-serif" font-size="12" fill="white" text-anchor="middle">+ Add Task</text>
  <rect x="50" y="240" width="300" height="40" rx="8" fill="white" opacity="0.1"/>
  <text x="200" y="260" font-family="Arial, sans-serif" font-size="16" fill="white" text-anchor="middle">ToDo App</text>
  <text x="200" y="275" font-family="Arial, sans-serif" font-size="12" fill="white" text-anchor="middle" opacity="0.8">React + TypeScript + Tailwind</text>
</svg>
